# xmcd CD database file
#
# Track frame offsets:
#	150
#	28927
#	66877
#	84868
#	120864
#	152036
#	172437
#	206619
#	234657
#	249893
#
# Disc length: 3770 seconds
#
# Revision: 0
# Processed by: cddbd v1.5.2PL0 Copyright (c) Steve Scherf et al.
# Submitted via: CDex 1.51
#
DISCID=7e0eb80a
DTITLE=Jonn Serrie and Gary Stroutsos - Hidden World Beyond
DYEAR=2009
DGENRE=New Age
TTITLE0=Hidden World Beyond
TTITLE1=The River Of Heaven
TTITLE2=Planet Zen
TTITLE3=The Enlightened Path
TTITLE4=Sea Of Clouds
TTITLE5=The Guardian
TTITLE6=Nightfall At Song Tra-Bong
TTITLE7=Indigo Moon
TTITLE8=Stillpoint
TTITLE9=Hidden World Live
EXTD=YEAR: 2009
EXTT0=
EXTT1=
EXTT2=
EXTT3=
EXTT4=
EXTT5=
EXTT6=
EXTT7=
EXTT8=
EXTT9=
PLAYORDER=
